<svg xmlns="http://www.w3.org/2000/svg" viewBox="0 0 192 192" width="192" height="192">
  <defs>
    <linearGradient id="grad1" x1="0%" y1="0%" x2="100%" y2="100%">
      <stop offset="0%" style="stop-color:#2B4C8B;stop-opacity:1" />
      <stop offset="100%" style="stop-color:#1e40af;stop-opacity:1" />
    </linearGradient>
  </defs>

  <!-- Фон -->
  <rect width="192" height="192" rx="24" fill="url(#grad1)"/>

  <!-- Строительная иконка -->
  <g transform="translate(48, 48)">
    <!-- Основа здания -->
    <rect x="16" y="48" width="64" height="48" fill="#ffffff" rx="4"/>

    <!-- Крыша -->
    <polygon points="12,48 52,24 92,48" fill="#ffffff"/>

    <!-- Окна -->
    <rect x="24" y="56" width="8" height="12" fill="#2B4C8B" rx="2"/>
    <rect x="36" y="56" width="8" height="12" fill="#2B4C8B" rx="2"/>
    <rect x="60" y="56" width="8" height="12" fill="#2B4C8B" rx="2"/>
    <rect x="72" y="56" width="8" height="12" fill="#2B4C8B" rx="2"/>

    <rect x="24" y="72" width="8" height="12" fill="#2B4C8B" rx="2"/>
    <rect x="36" y="72" width="8" height="12" fill="#2B4C8B" rx="2"/>
    <rect x="60" y="72" width="8" height="12" fill="#2B4C8B" rx="2"/>
    <rect x="72" y="72" width="8" height="12" fill="#2B4C8B" rx="2"/>

    <!-- Дверь -->
    <rect x="44" y="80" width="12" height="16" fill="#2B4C8B" rx="2"/>
    <circle cx="47" cy="84" r="1" fill="#ffffff"/>
  </g>

  <!-- Текст -->
  <text x="96" y="160" text-anchor="middle" fill="#ffffff" font-family="Arial, sans-serif" font-size="14" font-weight="bold">НОК</text>
</svg>
